<svg id="Layer_1" data-name="Layer 1" xmlns="http://www.w3.org/2000/svg" viewBox="0 0 753.38 202.14"><defs><style>.cls-1{fill:#d2d2d2;}.cls-10,.cls-13,.cls-14,.cls-16,.cls-19,.cls-2,.cls-20,.cls-21,.cls-24,.cls-27,.cls-28,.cls-3,.cls-5{fill:none;}.cls-10,.cls-13,.cls-14,.cls-16,.cls-2,.cls-27,.cls-28,.cls-3{stroke:#000;}.cls-2{stroke-width:0.94px;}.cls-3{stroke-width:0.28px;stroke-dasharray:1.13 0.56;}.cls-4{font-size:14.11px;}.cls-23,.cls-25,.cls-29,.cls-4{font-family:TeXGyrePagella-Regular, TeXGyrePagella Regular;}.cls-5{stroke:#eb0000;}.cls-20,.cls-5{stroke-width:2.4px;}.cls-6{font-size:32px;font-family:TeXGyrePagella-BoldItalic, TeXGyrePagella BoldItalic;font-weight:700;}.cls-6,.cls-8{font-style:italic;}.cls-7{font-size:14px;font-family:DejaVuSans, DejaVuSans;}.cls-7,.cls-8{fill:#5a5a5a;}.cls-8{font-size:18px;font-family:TeXGyrePagella-Italic, TeXGyrePagella Italic;}.cls-25,.cls-9{fill:#eb0000;}.cls-11,.cls-12,.cls-15,.cls-9{fill-rule:evenodd;}.cls-10{stroke-width:1.07px;}.cls-11{fill:#ffba00;}.cls-12{fill:#4590b4;}.cls-13{stroke-width:1.07px;}.cls-14,.cls-21{stroke-width:0.64px;}.cls-16{stroke-width:0.32px;}.cls-17{font-size:14.75px;font-family:STIXGeneral-Regular, STIXGeneral Regular;}.cls-18{fill:#fff;}.cls-19{stroke:#fff;stroke-width:1.17px;}.cls-20,.cls-24{stroke:#4590b4;}.cls-21{stroke:#707071;stroke-dasharray:0.64 0.64;}.cls-22{fill:#ff3100;}.cls-23,.cls-25,.cls-29{font-size:10px;}.cls-24{stroke-width:2.43px;}.cls-26{fill:#008300;}.cls-27{stroke-width:0.48px;}.cls-28{stroke-linejoin:round;stroke-width:0.18px;}.cls-29{fill:#275bd6;}.cls-30{letter-spacing:4.32em;}</style></defs><title>lst</title><rect class="cls-1" x="427.2" y="29.05" width="35.41" height="164.82"/><rect class="cls-1" x="616.71" y="28.87" width="35.41" height="164.82"/><line class="cls-2" x1="357.67" y1="14.37" x2="357.67" y2="193.04"/><line class="cls-2" x1="556.77" y1="16.27" x2="556.77" y2="195.89"/><line class="cls-2" x1="720.23" y1="15.32" x2="720.23" y2="197.32"/><line class="cls-3" x1="358.14" y1="99.9" x2="720.71" y2="99.9"/><line class="cls-3" x1="358.14" y1="132.69" x2="719.76" y2="132.69"/><line class="cls-3" x1="357.67" y1="166.91" x2="720.71" y2="166.91"/><text class="cls-4" transform="translate(427.04 25.3)">chrom. 1</text><text class="cls-4" transform="translate(615.53 25.05)">chrom. 2</text><path d="M752.07,138.79a1.89,1.89,0,1,1-1.89-1.88A1.89,1.89,0,0,1,752.07,138.79Z" transform="translate(-13.58 -7.09)"/><path d="M759.77,138.8a1.88,1.88,0,1,1-1.88-1.88A1.88,1.88,0,0,1,759.77,138.8Z" transform="translate(-13.58 -7.09)"/><path d="M767,138.76a1.88,1.88,0,1,1-1.88-1.88A1.88,1.88,0,0,1,767,138.76Z" transform="translate(-13.58 -7.09)"/><line class="cls-5" x1="358.13" y1="130.7" x2="393.32" y2="130.7"/><text class="cls-6" transform="translate(0 27)">A</text><text class="cls-6" transform="translate(273.05 26.78)">B</text><text class="cls-7" transform="translate(339.86 171.78)">0</text><text class="cls-7" transform="translate(339.81 138)">1</text><text class="cls-7" transform="translate(339.81 104.6)">2</text><text class="cls-8" transform="translate(324.14 27.57)">CN</text><path class="cls-9" d="M166.3,141.13c0,37.32-3.45,67.57-7.7,67.57s-7.69-30.25-7.69-67.57,3.44-67.56,7.69-67.56S166.3,103.82,166.3,141.13Z" transform="translate(-13.58 -7.09)"/><path class="cls-10" d="M166.3,141.13c0,37.32-3.45,67.57-7.7,67.57s-7.69-30.25-7.69-67.57,3.44-67.56,7.69-67.56S166.3,103.82,166.3,141.13Z" transform="translate(-13.58 -7.09)"/><path class="cls-9" d="M165.48,46c0,10.74-3.25,19.45-7.24,19.45S151,56.73,151,46s3.24-19.45,7.24-19.45S165.48,35.25,165.48,46Z" transform="translate(-13.58 -7.09)"/><path class="cls-10" d="M165.48,46c0,10.74-3.25,19.45-7.24,19.45S151,56.73,151,46s3.24-19.45,7.24-19.45S165.48,35.25,165.48,46Z" transform="translate(-13.58 -7.09)"/><path class="cls-11" d="M165.42,72c0,5.31-3,9.62-6.82,9.62s-6.81-4.31-6.81-9.62,3.05-9.61,6.81-9.61S165.42,66.71,165.42,72Z" transform="translate(-13.58 -7.09)"/><path class="cls-10" d="M165.42,72c0,5.31-3,9.62-6.82,9.62s-6.81-4.31-6.81-9.62,3.05-9.61,6.81-9.61S165.42,66.71,165.42,72Z" transform="translate(-13.58 -7.09)"/><path class="cls-12" d="M208.42,141.09c0,37.32-3.44,67.57-7.69,67.57S193,178.41,193,141.09s3.44-67.55,7.69-67.55S208.42,103.78,208.42,141.09Z" transform="translate(-13.58 -7.09)"/><path class="cls-10" d="M208.42,141.09c0,37.32-3.44,67.57-7.69,67.57S193,178.41,193,141.09s3.44-67.55,7.69-67.55S208.42,103.78,208.42,141.09Z" transform="translate(-13.58 -7.09)"/><path class="cls-12" d="M207.6,46c0,10.74-3.24,19.45-7.24,19.45s-7.23-8.71-7.23-19.45,3.24-19.45,7.23-19.45S207.6,35.21,207.6,46Z" transform="translate(-13.58 -7.09)"/><path class="cls-10" d="M207.6,46c0,10.74-3.24,19.45-7.24,19.45s-7.23-8.71-7.23-19.45,3.24-19.45,7.23-19.45S207.6,35.21,207.6,46Z" transform="translate(-13.58 -7.09)"/><path class="cls-11" d="M207.55,72c0,5.32-3.05,9.62-6.82,9.62s-6.82-4.3-6.82-9.62,3.05-9.61,6.82-9.61S207.55,66.67,207.55,72Z" transform="translate(-13.58 -7.09)"/><path class="cls-10" d="M207.55,72c0,5.32-3.05,9.62-6.82,9.62s-6.82-4.3-6.82-9.62,3.05-9.61,6.82-9.61S207.55,66.67,207.55,72Z" transform="translate(-13.58 -7.09)"/><line class="cls-13" x1="153.22" y1="138.5" x2="136.83" y2="138.5"/><polyline class="cls-14" points="136.73 162.87 92.72 111.89 136.56 108.26"/><polygon class="cls-15" points="134 108.47 132.83 109.85 137.19 108.21 132.62 107.3 134 108.47"/><polygon class="cls-16" points="134 108.47 132.83 109.85 137.19 108.21 132.62 107.3 134 108.47"/><text class="cls-17" transform="translate(37.44 116.08)">&gt; 10 Mb</text><rect class="cls-18" x="137.02" y="134.75" width="16.15" height="2.67"/><rect class="cls-19" x="137.02" y="134.75" width="16.15" height="2.67"/><line class="cls-13" x1="153.2" y1="133.63" x2="136.8" y2="133.63"/><line class="cls-14" x1="135.96" y1="135.94" x2="91.57" y2="161.66"/><text class="cls-17" transform="translate(41.2 166.24)">&lt; 3 Mb</text><line class="cls-5" x1="414.61" y1="130.61" x2="426.22" y2="130.61"/><line class="cls-5" x1="426.41" y1="97.21" x2="464.1" y2="97.21"/><line class="cls-5" x1="465.78" y1="130.61" x2="490.31" y2="130.61"/><line class="cls-5" x1="499.6" y1="164.46" x2="556.25" y2="164.46"/><line class="cls-20" x1="426.56" y1="169.41" x2="490.55" y2="169.41"/><line class="cls-5" x1="395.88" y1="97.21" x2="411.67" y2="97.21"/><line class="cls-21" x1="395.82" y1="90.51" x2="395.82" y2="177.71"/><line class="cls-21" x1="393.53" y1="90.51" x2="393.53" y2="177.71"/><line class="cls-21" x1="411.87" y1="90.46" x2="411.87" y2="177.66"/><line class="cls-21" x1="414.37" y1="90.41" x2="414.37" y2="177.61"/><line class="cls-21" x1="490.62" y1="90.31" x2="490.62" y2="177.51"/><line class="cls-21" x1="499.29" y1="90.25" x2="499.29" y2="177.44"/><line class="cls-21" x1="464.15" y1="90.32" x2="464.15" y2="177.51"/><line class="cls-21" x1="465.56" y1="90.32" x2="465.56" y2="177.51"/><path class="cls-22" d="M475.06,188a31.28,31.28,0,0,1,3,2,16.82,16.82,0,0,1,3,2.82,13.41,13.41,0,0,1,1.61,2.64l-2.56,1.44a11.47,11.47,0,0,0-1.53-2.59,15.61,15.61,0,0,0-3-2.76,20.48,20.48,0,0,0-3-1.92Z" transform="translate(-13.58 -7.09)"/><path class="cls-22" d="M483.46,187.63c-.54.91-1.14,1.78-1.75,2.64a10,10,0,0,1-2.19,2.31c-.48.39-1,.79-1.44,1.19-.33.25-.67.5-1,.73a9.91,9.91,0,0,0-.82.63,30.93,30.93,0,0,1-3.09,1.87c-.79.49,1.6-.93,2.41-1.39.05,0-.09.06-.13.08-7.29,4.15-.19.09-.27.15-.89.53-1.78,1-2.68,1.54-.51.28.18-.19-.27.13l2.31-1.86.27-.14c-.8.47-3.24,1.83-2.41,1.4.4-.21,6.35-3.66.27-.14,1.06-.57-.09,0,2.81-1.64l-2.39,1.4.14-.09c.28-.22,0,0,.27-.2s.53-.46.82-.65.69-.47,1-.72c.51-.38,1-.81,1.47-1.2a9.61,9.61,0,0,0,2.26-2.24c.59-.84,1.17-1.7,1.7-2.58Z" transform="translate(-13.58 -7.09)"/><rect class="cls-18" x="404.12" y="150.01" width="18.2" height="9.5"/><rect class="cls-18" x="385.53" y="150.46" width="18.2" height="9.5"/><text class="cls-23" transform="translate(407.04 157.79)">&lt;3</text><rect class="cls-18" x="486.42" y="150.26" width="18.2" height="9.5"/><text class="cls-23" transform="translate(489.34 158.04)">&gt;3</text><line class="cls-5" x1="557.14" y1="130.59" x2="652.65" y2="130.59"/><line class="cls-5" x1="687.26" y1="97.97" x2="719.76" y2="97.97"/><line class="cls-21" x1="592.27" y1="90.17" x2="592.27" y2="177.37"/><line class="cls-21" x1="596.37" y1="90.17" x2="596.37" y2="177.37"/><line class="cls-21" x1="608.96" y1="90.17" x2="608.96" y2="177.37"/><line class="cls-21" x1="612.21" y1="90.17" x2="612.21" y2="177.37"/><line class="cls-21" x1="652.49" y1="90.14" x2="652.49" y2="177.34"/><line class="cls-21" x1="653.69" y1="90.11" x2="653.69" y2="177.31"/><line class="cls-5" x1="653.73" y1="130.59" x2="683.58" y2="130.59"/><line class="cls-20" x1="653.73" y1="169.06" x2="683.98" y2="169.06"/><line class="cls-21" x1="683.52" y1="90.06" x2="683.52" y2="177.26"/><line class="cls-21" x1="687.08" y1="90.06" x2="687.08" y2="177.26"/><rect class="cls-18" x="593.12" y="104.56" width="18.2" height="9.5"/><rect class="cls-18" x="585.32" y="149.96" width="18.2" height="9.5"/><text class="cls-23" transform="translate(588.24 157.74)">&lt;3</text><rect class="cls-18" x="601.72" y="150.26" width="14.7" height="9.5"/><text class="cls-23" transform="translate(604.64 158.04)">&lt;3</text><rect class="cls-18" x="652.11" y="150.09" width="10.35" height="9.5"/><text class="cls-23" transform="translate(647.18 157.88)">&lt;3</text><rect class="cls-18" x="676.62" y="150.16" width="18.2" height="9.5"/><text class="cls-23" transform="translate(679.54 157.94)">&lt;3</text><line class="cls-24" x1="358.12" y1="134.54" x2="426.21" y2="134.54"/><line class="cls-20" x1="491.33" y1="134.62" x2="556.27" y2="134.62"/><text class="cls-25" transform="translate(367.7 125.15)">&gt;10</text><text class="cls-25" transform="translate(435.06 91.46)">&gt;10</text><text class="cls-25" transform="translate(396.27 90.9)">&gt;10</text><text class="cls-25" transform="translate(519.3 160.19)">&gt;10</text><text class="cls-25" transform="translate(415.83 125.08)">&lt;10</text><text class="cls-25" transform="translate(470.23 126.48)">&gt;10</text><path class="cls-26" d="M403.13,191.91c.55.71,1.08,1.41,1.58,2.16s.82,1.25,1.22,1.89l.14.21c.06.07.14.21.21.15s.06-.1,0-.09c-2.14,1.11-2.6,1.93-2.08,1.06,0-.07,0-.14.07-.21,0-.27,0-.38.1-.65a12.12,12.12,0,0,1,.32-1.22,16.72,16.72,0,0,1,1.34-3,10.29,10.29,0,0,1,2.2-2.67,19.54,19.54,0,0,1,4.68-3,6.8,6.8,0,0,1,2.28-.63c.34,0,.68,0,1,0l-2.1,1.54a6.45,6.45,0,0,0-1,.06,7,7,0,0,0-2.21.68c-.86.43-1.25.64,1.36-.83.14-.08-.29.19-.43.28s-.6.42-.86.63-.26.22-.39.33a9.63,9.63,0,0,0-2.24,2.6,14.12,14.12,0,0,0-1.33,3,8.62,8.62,0,0,0-.46,2.07c-.19,1-1.6,2.15-2.49,1.56a1.5,1.5,0,0,1-.4-.5c-.39-.64-.78-1.27-1.19-1.89a16.46,16.46,0,0,0-1.61-2.1Z" transform="translate(-13.58 -7.09)"/><path class="cls-22" d="M424.46,188.2a32.46,32.46,0,0,1,3,2,16.82,16.82,0,0,1,3,2.82,12.52,12.52,0,0,1,1.61,2.64l-2.56,1.45a11.32,11.32,0,0,0-1.53-2.6,15.63,15.63,0,0,0-3-2.76,20.86,20.86,0,0,0-3-1.91Z" transform="translate(-13.58 -7.09)"/><path class="cls-22" d="M432.86,187.87c-.54.9-1.15,1.77-1.75,2.64a10,10,0,0,1-2.2,2.3L427.47,194c-.33.25-.67.5-1,.73a8.44,8.44,0,0,0-.81.64,32.18,32.18,0,0,1-3.1,1.86c-.79.49,1.61-.92,2.41-1.39.05,0-.09.06-.13.09-7.28,4.15-.18.09-.27.14-.88.53-1.78,1-2.68,1.54-.5.29.18-.18-.27.14l2.32-1.87c.09,0,.35-.19.27-.13-.81.46-3.24,1.82-2.42,1.39.4-.21,6.36-3.66.28-.14,1.05-.57-.09.05,2.81-1.64l-2.4,1.4.14-.08c.29-.22,0,0,.28-.2a7.31,7.31,0,0,1,.82-.65c.33-.26.68-.48,1-.73.51-.38,1-.81,1.48-1.2a9.76,9.76,0,0,0,2.25-2.24c.59-.84,1.17-1.69,1.7-2.57Z" transform="translate(-13.58 -7.09)"/><path class="cls-22" d="M505.66,188.16a32.71,32.71,0,0,1,3,2,16.82,16.82,0,0,1,3,2.82,13.11,13.11,0,0,1,1.6,2.63l-2.55,1.46a11.32,11.32,0,0,0-1.53-2.6,15.94,15.94,0,0,0-3-2.76,21,21,0,0,0-3-1.92Z" transform="translate(-13.58 -7.09)"/><path class="cls-22" d="M514.06,187.84c-.54.9-1.14,1.76-1.74,2.63a10.27,10.27,0,0,1-2.2,2.31L508.68,194c-.33.25-.67.5-1,.73s-.55.42-.82.63a30.21,30.21,0,0,1-3.09,1.87c-.79.49,1.61-.93,2.41-1.39l-.13.09c-7.29,4.14-.19.09-.28.14-.87.53-1.78,1-2.67,1.54-.51.28.17-.18-.27.13l2.31-1.87c.09,0,.36-.18.27-.13-.8.47-3.23,1.83-2.41,1.39.4-.2,6.35-3.66.27-.13,1.05-.57-.09.05,2.81-1.64l-2.39,1.4a.94.94,0,0,0,.13-.09c.29-.22,0,0,.29-.2a10,10,0,0,1,.81-.65c.33-.26.69-.47,1-.72.5-.38,1-.81,1.48-1.2a10,10,0,0,0,2.25-2.24c.59-.84,1.16-1.7,1.7-2.57Z" transform="translate(-13.58 -7.09)"/><line class="cls-27" x1="385.41" y1="160.93" x2="392.6" y2="160.93"/><path class="cls-15" d="M403.66,166.85l3.15,1.16-3.15,1.16A2,2,0,0,0,403.66,166.85Z" transform="translate(-13.58 -7.09)"/><path class="cls-28" d="M403.66,166.85l3.15,1.16-3.15,1.16A2,2,0,0,0,403.66,166.85Z" transform="translate(-13.58 -7.09)"/><line class="cls-27" x1="403.93" y1="160.93" x2="396.98" y2="160.93"/><path class="cls-15" d="M413.07,169.18,409.93,168l3.14-1.15A2,2,0,0,0,413.07,169.18Z" transform="translate(-13.58 -7.09)"/><path class="cls-28" d="M413.07,169.18,409.93,168l3.14-1.15A2,2,0,0,0,413.07,169.18Z" transform="translate(-13.58 -7.09)"/><text class="cls-23" transform="translate(389.04 157.94)">&lt;3</text><rect class="cls-18" x="462.62" y="150.26" width="11.5" height="9.5"/><text class="cls-23" transform="translate(459.14 157.74)">&lt;3</text><line class="cls-20" x1="557.24" y1="134.61" x2="592.38" y2="134.61"/><line class="cls-20" x1="596.34" y1="101.88" x2="608.85" y2="101.88"/><line class="cls-20" x1="612.36" y1="134.62" x2="652.66" y2="134.62"/><line class="cls-20" x1="687.26" y1="101.83" x2="719.72" y2="101.83"/><path class="cls-26" d="M602.4,192.23c.55.7,1.08,1.4,1.58,2.15s.82,1.25,1.22,1.89l.14.21c.06.07.14.21.21.16s.05-.12,0-.1c-2.15,1.12-2.61,1.93-2.08,1.06l.06-.21c.06-.27.05-.38.1-.66a10.32,10.32,0,0,1,.33-1.21,16.68,16.68,0,0,1,1.33-3,10.46,10.46,0,0,1,2.2-2.67,19.6,19.6,0,0,1,4.69-3,6.91,6.91,0,0,1,2.28-.63c.33,0,.67,0,1,0l-2.1,1.53c-.32,0-.65,0-1,.06a7.22,7.22,0,0,0-2.22.67c-.86.45-1.25.65,1.36-.81l-.43.27c-.28.19-.6.42-.86.63l-.39.33a9.63,9.63,0,0,0-2.24,2.6,14.65,14.65,0,0,0-1.33,3,9.69,9.69,0,0,0-.46,2.07c-.19,1-1.6,2.16-2.49,1.56a1.72,1.72,0,0,1-.4-.49c-.38-.64-.77-1.28-1.19-1.9a16.46,16.46,0,0,0-1.61-2.1Z" transform="translate(-13.58 -7.09)"/><path class="cls-22" d="M620.65,188.13a34.66,34.66,0,0,1,3,2,16.84,16.84,0,0,1,3,2.82,12.52,12.52,0,0,1,1.61,2.64L625.68,197a10.71,10.71,0,0,0-1.53-2.59,15.6,15.6,0,0,0-3-2.77,21.53,21.53,0,0,0-3-1.91Z" transform="translate(-13.58 -7.09)"/><path class="cls-22" d="M629.05,187.8c-.54.91-1.15,1.77-1.75,2.64a10.05,10.05,0,0,1-2.2,2.31l-1.44,1.18c-.33.25-.67.5-1,.73a8.57,8.57,0,0,0-.82.64,31,31,0,0,1-3.1,1.86c-.78.5,1.61-.93,2.42-1.38l-.14.08c-7.28,4.15-.18.09-.27.14-.88.53-1.78,1-2.68,1.54-.5.28.18-.18-.27.14l2.32-1.87.27-.13c-.81.47-3.24,1.82-2.41,1.39.39-.21,6.35-3.66.27-.14,1-.57-.09,0,2.81-1.63l-2.4,1.39a.67.67,0,0,0,.14-.09c.29-.21,0,0,.28-.19a8.67,8.67,0,0,1,.82-.65c.33-.26.68-.48,1-.73.51-.38,1-.81,1.48-1.19a10,10,0,0,0,2.25-2.24c.59-.85,1.17-1.7,1.71-2.58Z" transform="translate(-13.58 -7.09)"/><path class="cls-26" d="M694.57,192.23c.55.7,1.09,1.4,1.58,2.15s.83,1.25,1.22,1.89c0,.07.09.14.15.21s.14.21.21.16,0-.11,0-.1c-2.15,1.12-2.61,1.93-2.09,1.06a1.29,1.29,0,0,0,.07-.21c.06-.27,0-.37.11-.66a8.63,8.63,0,0,1,.32-1.21,16.68,16.68,0,0,1,1.33-3,10.46,10.46,0,0,1,2.2-2.67,19.79,19.79,0,0,1,4.69-3,7.16,7.16,0,0,1,2.28-.63c.33,0,.67,0,1,0l-2.1,1.53c-.32,0-.65,0-1,.06a6.84,6.84,0,0,0-2.21.68c-.87.44-1.26.64,1.35-.82l-.43.27c-.28.19-.6.42-.86.63l-.39.33a9.8,9.8,0,0,0-2.24,2.6,14.65,14.65,0,0,0-1.33,3,9.1,9.1,0,0,0-.45,2.07c-.2,1-1.61,2.16-2.5,1.56a1.72,1.72,0,0,1-.4-.49c-.38-.64-.77-1.28-1.19-1.9a17.11,17.11,0,0,0-1.6-2.1Z" transform="translate(-13.58 -7.09)"/><text class="cls-29" transform="translate(565.69 145.49)">&gt;1<tspan class="cls-30" x="11.09" y="0">0</tspan><tspan x="59.41" y="0">&gt;10</tspan></text><text class="cls-29" transform="translate(594.42 112.98)">&gt;10</text><text class="cls-29" transform="translate(660.23 178.88)">&gt;10</text><text class="cls-29" transform="translate(698.63 112.68)">&gt;10</text><path class="cls-22" d="M663.07,188a33.31,33.31,0,0,1,3,2,16.84,16.84,0,0,1,3,2.82,13,13,0,0,1,1.61,2.64l-2.56,1.45a11.32,11.32,0,0,0-1.53-2.6,15.63,15.63,0,0,0-3-2.76,21.34,21.34,0,0,0-3-1.92Z" transform="translate(-13.58 -7.09)"/><path class="cls-22" d="M671.47,187.66c-.54.9-1.14,1.77-1.74,2.64a10,10,0,0,1-2.2,2.3l-1.44,1.19c-.33.25-.67.5-1,.73s-.55.42-.82.64a30.85,30.85,0,0,1-3.09,1.86c-.78.49,1.61-.93,2.41-1.39,0,0-.09.06-.13.09-7.28,4.15-.19.09-.27.14-.89.54-1.78,1-2.68,1.54-.51.28.18-.18-.27.13l2.31-1.86a3,3,0,0,0,.27-.14c-.8.47-3.23,1.83-2.41,1.4.4-.21,6.36-3.66.27-.14,1.06-.57-.09.05,2.81-1.63l-2.39,1.4c-.05,0,.1-.06.14-.09.28-.22,0,0,.28-.2a8.67,8.67,0,0,1,.82-.65c.33-.26.68-.48,1-.73.51-.38,1-.81,1.48-1.2a9.76,9.76,0,0,0,2.25-2.24c.59-.84,1.17-1.69,1.7-2.57Z" transform="translate(-13.58 -7.09)"/><line class="cls-27" x1="403.83" y1="160.93" x2="411.02" y2="160.93"/><path class="cls-15" d="M422.09,166.85l3.14,1.16-3.14,1.16A2,2,0,0,0,422.09,166.85Z" transform="translate(-13.58 -7.09)"/><path class="cls-28" d="M422.09,166.85l3.14,1.16-3.14,1.16A2,2,0,0,0,422.09,166.85Z" transform="translate(-13.58 -7.09)"/><line class="cls-27" x1="422.35" y1="160.92" x2="415.4" y2="160.92"/><path class="cls-15" d="M431.48,169.17,428.34,168l3.14-1.16A2,2,0,0,0,431.48,169.17Z" transform="translate(-13.58 -7.09)"/><path class="cls-28" d="M431.48,169.17,428.34,168l3.14-1.16A2,2,0,0,0,431.48,169.17Z" transform="translate(-13.58 -7.09)"/><line class="cls-27" x1="455.97" y1="160.93" x2="463.16" y2="160.93"/><path class="cls-15" d="M474.22,166.86l3.15,1.16-3.15,1.15A2,2,0,0,0,474.22,166.86Z" transform="translate(-13.58 -7.09)"/><path class="cls-28" d="M474.22,166.86l3.15,1.16-3.15,1.15A2,2,0,0,0,474.22,166.86Z" transform="translate(-13.58 -7.09)"/><line class="cls-27" x1="473.53" y1="160.92" x2="466.58" y2="160.92"/><path class="cls-15" d="M482.67,169.18,479.52,168l3.15-1.16A2,2,0,0,0,482.67,169.18Z" transform="translate(-13.58 -7.09)"/><path class="cls-28" d="M482.67,169.18,479.52,168l3.15-1.16A2,2,0,0,0,482.67,169.18Z" transform="translate(-13.58 -7.09)"/><line class="cls-27" x1="482.49" y1="160.91" x2="489.68" y2="160.91"/><path class="cls-15" d="M500.75,166.84l3.14,1.16-3.14,1.16A2,2,0,0,0,500.75,166.84Z" transform="translate(-13.58 -7.09)"/><path class="cls-28" d="M500.75,166.84l3.14,1.16-3.14,1.16A2,2,0,0,0,500.75,166.84Z" transform="translate(-13.58 -7.09)"/><line class="cls-27" x1="507.28" y1="160.91" x2="500.33" y2="160.91"/><path class="cls-15" d="M516.42,169.16,513.27,168l3.15-1.16A2,2,0,0,0,516.42,169.16Z" transform="translate(-13.58 -7.09)"/><path class="cls-28" d="M516.42,169.16,513.27,168l3.15-1.16A2,2,0,0,0,516.42,169.16Z" transform="translate(-13.58 -7.09)"/><line class="cls-27" x1="584.19" y1="160.86" x2="591.38" y2="160.86"/><path class="cls-15" d="M602.45,166.79l3.14,1.16-3.14,1.15A2,2,0,0,0,602.45,166.79Z" transform="translate(-13.58 -7.09)"/><path class="cls-28" d="M602.45,166.79l3.14,1.16-3.14,1.15A2,2,0,0,0,602.45,166.79Z" transform="translate(-13.58 -7.09)"/><line class="cls-27" x1="604.28" y1="160.85" x2="597.33" y2="160.85"/><path class="cls-15" d="M613.42,169.1,610.27,168l3.15-1.16A2,2,0,0,0,613.42,169.1Z" transform="translate(-13.58 -7.09)"/><path class="cls-28" d="M613.42,169.1,610.27,168l3.15-1.16A2,2,0,0,0,613.42,169.1Z" transform="translate(-13.58 -7.09)"/><line class="cls-27" x1="600.72" y1="160.86" x2="607.91" y2="160.86"/><path class="cls-15" d="M619,166.79l3.14,1.16L619,169.1A2,2,0,0,0,619,166.79Z" transform="translate(-13.58 -7.09)"/><path class="cls-28" d="M619,166.79l3.14,1.16L619,169.1A2,2,0,0,0,619,166.79Z" transform="translate(-13.58 -7.09)"/><line class="cls-27" x1="620.2" y1="160.85" x2="613.26" y2="160.85"/><path class="cls-15" d="M629.35,169.1,626.2,168l3.15-1.16A2,2,0,0,0,629.35,169.1Z" transform="translate(-13.58 -7.09)"/><path class="cls-28" d="M629.35,169.1,626.2,168l3.15-1.16A2,2,0,0,0,629.35,169.1Z" transform="translate(-13.58 -7.09)"/><line class="cls-27" x1="644.26" y1="160.86" x2="651.45" y2="160.86"/><path class="cls-15" d="M662.52,166.79l3.14,1.16-3.14,1.15A2,2,0,0,0,662.52,166.79Z" transform="translate(-13.58 -7.09)"/><path class="cls-28" d="M662.52,166.79l3.14,1.16-3.14,1.15A2,2,0,0,0,662.52,166.79Z" transform="translate(-13.58 -7.09)"/><line class="cls-27" x1="661.62" y1="160.85" x2="654.68" y2="160.85"/><path class="cls-15" d="M670.77,169.1,667.62,168l3.15-1.16A2,2,0,0,0,670.77,169.1Z" transform="translate(-13.58 -7.09)"/><path class="cls-28" d="M670.77,169.1,667.62,168l3.15-1.16A2,2,0,0,0,670.77,169.1Z" transform="translate(-13.58 -7.09)"/><line class="cls-27" x1="675.29" y1="160.86" x2="682.47" y2="160.86"/><path class="cls-15" d="M693.54,166.79l3.15,1.16-3.15,1.15A2,2,0,0,0,693.54,166.79Z" transform="translate(-13.58 -7.09)"/><path class="cls-28" d="M693.54,166.79l3.15,1.16-3.15,1.15A2,2,0,0,0,693.54,166.79Z" transform="translate(-13.58 -7.09)"/><line class="cls-27" x1="695.07" y1="160.85" x2="688.12" y2="160.85"/><path class="cls-15" d="M704.21,169.1,701.07,168l3.14-1.16A2,2,0,0,0,704.21,169.1Z" transform="translate(-13.58 -7.09)"/><path class="cls-28" d="M704.21,169.1,701.07,168l3.14-1.16A2,2,0,0,0,704.21,169.1Z" transform="translate(-13.58 -7.09)"/></svg>