<svg id="Layer_1" data-name="Layer 1" xmlns="http://www.w3.org/2000/svg" viewBox="0 0 753.38 203.7"><defs><style>.cls-1,.cls-11,.cls-16,.cls-18,.cls-19,.cls-2,.cls-20,.cls-21,.cls-8{fill:none;}.cls-1,.cls-11,.cls-16,.cls-18,.cls-2,.cls-8{stroke:#000;}.cls-1{stroke-width:0.94px;}.cls-2{stroke-width:0.28px;stroke-dasharray:1.13 0.56;}.cls-3{font-size:14.11px;font-family:TeXGyrePagella-Regular, TeXGyrePagella Regular;}.cls-4{font-size:32px;font-family:TeXGyrePagella-BoldItalic, TeXGyrePagella BoldItalic;font-weight:700;}.cls-4,.cls-6{font-style:italic;}.cls-5{font-size:14px;font-family:DejaVuSans, DejaVuSans;}.cls-5,.cls-6{fill:#5a5a5a;}.cls-6{font-size:18px;font-family:TeXGyrePagella-Italic, TeXGyrePagella Italic;}.cls-7{fill:#eb0000;}.cls-10,.cls-17,.cls-7,.cls-9{fill-rule:evenodd;}.cls-8{stroke-width:1.08px;}.cls-9{fill:#ffba00;}.cls-10{fill:#4590b4;}.cls-11{stroke-width:2.17px;stroke-dasharray:2.17 2.17;}.cls-12{font-size:17.32px;font-family:STIXGeneral-Regular, STIXGeneral Regular;}.cls-13{letter-spacing:-0.02em;}.cls-14{letter-spacing:0em;}.cls-15{letter-spacing:0em;}.cls-16{stroke-width:0.99px;}.cls-18{stroke-width:0.49px;}.cls-19{stroke:#eb0000;}.cls-19,.cls-20{stroke-width:2.4px;}.cls-20{stroke:#4590b4;}.cls-21{stroke:#00b700;stroke-width:0.8px;stroke-dasharray:2.4 0.8;}</style></defs><title>ntai</title><line class="cls-1" x1="357.67" y1="14.37" x2="357.67" y2="193.04"/><line class="cls-1" x1="556.77" y1="16.27" x2="556.77" y2="195.89"/><line class="cls-1" x1="720.23" y1="15.32" x2="720.23" y2="197.32"/><line class="cls-2" x1="358.14" y1="99.9" x2="720.71" y2="99.9"/><line class="cls-2" x1="358.94" y1="132.69" x2="720.56" y2="132.69"/><line class="cls-2" x1="357.67" y1="166.91" x2="720.71" y2="166.91"/><text class="cls-3" transform="translate(427.04 25.3)">chrom. 1</text><text class="cls-3" transform="translate(615.53 25.05)">chrom. 2</text><path d="M752.07,138.79a1.89,1.89,0,1,1-1.89-1.88A1.89,1.89,0,0,1,752.07,138.79Z" transform="translate(-13.58 -7.09)"/><path d="M759.77,138.8a1.88,1.88,0,1,1-1.88-1.88A1.88,1.88,0,0,1,759.77,138.8Z" transform="translate(-13.58 -7.09)"/><path d="M767,138.76a1.88,1.88,0,1,1-1.88-1.88A1.88,1.88,0,0,1,767,138.76Z" transform="translate(-13.58 -7.09)"/><text class="cls-4" transform="translate(0 27)">A</text><text class="cls-4" transform="translate(273.05 26.78)">B</text><text class="cls-5" transform="translate(339.86 171.78)">0</text><text class="cls-5" transform="translate(339.81 138)">1</text><text class="cls-5" transform="translate(339.81 104.6)">2</text><text class="cls-6" transform="translate(324.14 27.57)">CN</text><path class="cls-7" d="M185.13,142.19c0,37.55-3.52,68-7.86,68s-7.86-30.44-7.86-68,3.52-68,7.86-68S185.13,104.64,185.13,142.19Z" transform="translate(-13.58 -7.09)"/><path class="cls-8" d="M185.13,142.19c0,37.55-3.52,68-7.86,68s-7.86-30.44-7.86-68,3.52-68,7.86-68S185.13,104.64,185.13,142.19Z" transform="translate(-13.58 -7.09)"/><path class="cls-7" d="M184.29,46.45C184.29,57.25,181,66,176.9,66s-7.4-8.77-7.4-19.57,3.31-19.57,7.4-19.57S184.29,35.64,184.29,46.45Z" transform="translate(-13.58 -7.09)"/><path class="cls-8" d="M184.29,46.45C184.29,57.25,181,66,176.9,66s-7.4-8.77-7.4-19.57,3.31-19.57,7.4-19.57S184.29,35.64,184.29,46.45Z" transform="translate(-13.58 -7.09)"/><path class="cls-9" d="M184.23,72.64c0,5.34-3.11,9.68-7,9.68s-7-4.34-7-9.68,3.12-9.67,7-9.67S184.23,67.3,184.23,72.64Z" transform="translate(-13.58 -7.09)"/><path class="cls-8" d="M184.23,72.64c0,5.34-3.11,9.68-7,9.68s-7-4.34-7-9.68,3.12-9.67,7-9.67S184.23,67.3,184.23,72.64Z" transform="translate(-13.58 -7.09)"/><path class="cls-10" d="M228.15,142.15c0,37.55-3.52,68-7.85,68s-7.86-30.44-7.86-68,3.52-68,7.86-68S228.15,104.6,228.15,142.15Z" transform="translate(-13.58 -7.09)"/><path class="cls-8" d="M228.15,142.15c0,37.55-3.52,68-7.85,68s-7.86-30.44-7.86-68,3.52-68,7.86-68S228.15,104.6,228.15,142.15Z" transform="translate(-13.58 -7.09)"/><path class="cls-10" d="M227.31,46.41C227.31,57.22,224,66,219.92,66s-7.39-8.76-7.39-19.57,3.31-19.57,7.39-19.57S227.31,35.6,227.31,46.41Z" transform="translate(-13.58 -7.09)"/><path class="cls-8" d="M227.31,46.41C227.31,57.22,224,66,219.92,66s-7.39-8.76-7.39-19.57,3.31-19.57,7.39-19.57S227.31,35.6,227.31,46.41Z" transform="translate(-13.58 -7.09)"/><path class="cls-9" d="M227.26,72.6c0,5.35-3.12,9.68-7,9.68s-7-4.33-7-9.68,3.12-9.67,7-9.67S227.26,67.26,227.26,72.6Z" transform="translate(-13.58 -7.09)"/><path class="cls-8" d="M227.26,72.6c0,5.35-3.12,9.68-7,9.68s-7-4.33-7-9.68,3.12-9.67,7-9.67S227.26,67.26,227.26,72.6Z" transform="translate(-13.58 -7.09)"/><line class="cls-11" x1="157.59" y1="171.48" x2="171.38" y2="171.48"/><path class="cls-7" d="M127.6,178.6c5.15,44.17,9.46,40.19,13.73,0Z" transform="translate(-13.58 -7.09)"/><path class="cls-8" d="M127.6,178.6c5.15,44.17,9.46,40.19,13.73,0Z" transform="translate(-13.58 -7.09)"/><text class="cls-12" transform="translate(11.35 128.84)"><tspan class="cls-13">e</tspan><tspan x="8.31" y="0">xtends </tspan><tspan class="cls-14" x="60.64" y="0">t</tspan><tspan x="66.32" y="0">o</tspan></text><text class="cls-12" transform="translate(11.35 150.49)"><tspan xml:space="preserve"> telom</tspan><tspan class="cls-15" x="46.12" y="0">e</tspan><tspan x="54.76" y="0">re</tspan></text><polyline class="cls-16" points="104.81 187.65 43.02 187.65 43.02 166.46"/><polygon class="cls-17" points="100.85 187.65 98.87 189.63 105.79 187.65 98.87 185.67 100.85 187.65"/><polygon class="cls-18" points="100.85 187.65 98.87 189.63 105.79 187.65 98.87 185.67 100.85 187.65"/><line class="cls-19" x1="358.09" y1="97.82" x2="399.91" y2="97.82"/><line class="cls-19" x1="400.53" y1="130.52" x2="442.35" y2="130.52"/><line class="cls-19" x1="445.21" y1="97.79" x2="471.33" y2="97.79"/><line class="cls-19" x1="474.05" y1="130.52" x2="531.06" y2="130.52"/><line class="cls-20" x1="358.1" y1="168.99" x2="399.92" y2="168.99"/><line class="cls-20" x1="400.53" y1="134.96" x2="531.49" y2="134.96"/><line class="cls-19" x1="557.1" y1="97.71" x2="680.65" y2="97.71"/><line class="cls-20" x1="557.2" y1="102.25" x2="680.76" y2="102.25"/><line class="cls-20" x1="682.07" y1="134.22" x2="719.94" y2="134.22"/><line class="cls-19" x1="531.68" y1="164.74" x2="556.38" y2="164.74"/><line class="cls-20" x1="532.18" y1="102.22" x2="556.3" y2="102.22"/><path class="cls-21" d="M419.25,139.8c0,33.93-12.11,61.45-27.05,61.45s-27-27.52-27-61.45,12.1-61.44,27-61.44S419.25,105.86,419.25,139.8Z" transform="translate(-13.58 -7.09)"/><path class="cls-21" d="M572.54,139.6c0,34-6.69,61.54-14.94,61.54s-14.94-27.55-14.94-61.54,6.69-61.54,14.94-61.54S572.54,105.61,572.54,139.6Z" transform="translate(-13.58 -7.09)"/><line class="cls-19" x1="681.95" y1="65.89" x2="719.81" y2="65.89"/><path class="cls-21" d="M737.45,105.2c0,33.94-10.32,61.45-23.05,61.45s-23-27.51-23-61.45,10.32-61.45,23-61.45S737.45,71.27,737.45,105.2Z" transform="translate(-13.58 -7.09)"/></svg>